<svg xmlns="http://www.w3.org/2000/svg" xmlns:xlink="http://www.w3.org/1999/xlink" viewBox="0 0 1199.04 236.93"><defs><style>.cls-1{fill:#1d1d1b;}.cls-2{fill:url(#Degradado_sin_nombre_10);}.cls-3{fill:#fff;}.cls-4{fill:url(#Degradado_sin_nombre_23);}.cls-5{fill:url(#Degradado_sin_nombre_23-2);}.cls-6{fill:url(#Degradado_sin_nombre_23-3);}.cls-7{fill:url(#Degradado_sin_nombre_23-4);}.cls-8{fill:url(#Degradado_sin_nombre_23-5);}.cls-9{fill:url(#Degradado_sin_nombre_23-6);}.cls-10{fill:url(#Degradado_sin_nombre_23-7);}.cls-11{fill:url(#Degradado_sin_nombre_23-8);}.cls-12{fill:url(#Degradado_sin_nombre_23-9);}.cls-13{fill:url(#Degradado_sin_nombre_23-10);}.cls-14{fill:url(#Degradado_sin_nombre_23-11);}.cls-15{fill:url(#Degradado_sin_nombre_23-12);}.cls-16{fill:url(#Degradado_sin_nombre_23-13);}.cls-17{fill:url(#Degradado_sin_nombre_23-14);}.cls-18{fill:url(#Degradado_sin_nombre_23-15);}.cls-19{fill:url(#Degradado_sin_nombre_23-16);}.cls-20{fill:url(#Degradado_sin_nombre_23-17);}.cls-21{fill:url(#Degradado_sin_nombre_23-18);}.cls-22{fill:url(#Degradado_sin_nombre_23-19);}.cls-23{fill:url(#Degradado_sin_nombre_23-20);}.cls-24{fill:url(#Degradado_sin_nombre_10-2);}.cls-25{fill:url(#Degradado_sin_nombre_10-3);}.cls-26{fill:url(#Degradado_sin_nombre_10-4);}.cls-27{fill:url(#Degradado_sin_nombre_10-5);}.cls-28{fill:url(#Degradado_sin_nombre_10-6);}.cls-29{fill:url(#Degradado_sin_nombre_10-7);}.cls-30{fill:url(#Degradado_sin_nombre_10-8);}.cls-31{fill:url(#Degradado_sin_nombre_10-9);}.cls-32{fill:url(#Degradado_sin_nombre_10-10);}.cls-33{fill:url(#Degradado_sin_nombre_10-11);}.cls-34{fill:url(#Degradado_sin_nombre_10-12);}.cls-35{fill:url(#Degradado_sin_nombre_10-13);}</style><linearGradient id="Degradado_sin_nombre_10" x1="-8.81" y1="795.89" x2="1190.23" y2="795.89" gradientUnits="userSpaceOnUse"><stop offset="0" stop-color="#ffef26"/><stop offset="0.01" stop-color="#feeb26"/><stop offset="0.14" stop-color="#f7ba28"/><stop offset="0.28" stop-color="#f19029"/><stop offset="0.42" stop-color="#ec6e2b"/><stop offset="0.56" stop-color="#e8532c"/><stop offset="0.7" stop-color="#e5402c"/><stop offset="0.84" stop-color="#e4352d"/><stop offset="1" stop-color="#e3312d"/></linearGradient><linearGradient id="Degradado_sin_nombre_23" x1="182.56" y1="867.51" x2="182.56" y2="718.16" gradientUnits="userSpaceOnUse"><stop offset="0.66" stop-color="#e9e9e9"/><stop offset="0.78" stop-color="#b2b2b2"/><stop offset="1" stop-color="#fff"/></linearGradient><linearGradient id="Degradado_sin_nombre_23-2" x1="182.56" y1="718.16" x2="182.56" y2="867.51" xlink:href="#Degradado_sin_nombre_23"/><linearGradient id="Degradado_sin_nombre_23-3" x1="376.64" y1="871.66" x2="376.64" y2="740.95" xlink:href="#Degradado_sin_nombre_23"/><linearGradient id="Degradado_sin_nombre_23-4" x1="376.64" y1="740.95" x2="376.64" y2="871.66" xlink:href="#Degradado_sin_nombre_23"/><linearGradient id="Degradado_sin_nombre_23-5" x1="527.85" y1="873.43" x2="527.85" y2="752.37" xlink:href="#Degradado_sin_nombre_23"/><linearGradient id="Degradado_sin_nombre_23-6" x1="527.85" y1="752.37" x2="527.85" y2="873.43" xlink:href="#Degradado_sin_nombre_23"/><linearGradient id="Degradado_sin_nombre_23-7" x1="668.31" y1="875.25" x2="668.31" y2="766.26" xlink:href="#Degradado_sin_nombre_23"/><linearGradient id="Degradado_sin_nombre_23-8" x1="668.31" y1="766.26" x2="668.31" y2="875.25" xlink:href="#Degradado_sin_nombre_23"/><linearGradient id="Degradado_sin_nombre_23-9" x1="788.62" y1="876.72" x2="788.62" y2="780.1" xlink:href="#Degradado_sin_nombre_23"/><linearGradient id="Degradado_sin_nombre_23-10" x1="788.62" y1="780.1" x2="788.62" y2="876.72" xlink:href="#Degradado_sin_nombre_23"/><linearGradient id="Degradado_sin_nombre_23-11" x1="875.11" y1="878" x2="875.11" y2="786.88" xlink:href="#Degradado_sin_nombre_23"/><linearGradient id="Degradado_sin_nombre_23-12" x1="875.11" y1="786.88" x2="875.11" y2="878" xlink:href="#Degradado_sin_nombre_23"/><linearGradient id="Degradado_sin_nombre_23-13" x1="952.53" y1="879.05" x2="952.53" y2="794.12" xlink:href="#Degradado_sin_nombre_23"/><linearGradient id="Degradado_sin_nombre_23-14" x1="952.53" y1="794.12" x2="952.53" y2="879.05" xlink:href="#Degradado_sin_nombre_23"/><linearGradient id="Degradado_sin_nombre_23-15" x1="1019.23" y1="879.91" x2="1019.23" y2="800.64" xlink:href="#Degradado_sin_nombre_23"/><linearGradient id="Degradado_sin_nombre_23-16" x1="1019.23" y1="800.64" x2="1019.23" y2="879.91" xlink:href="#Degradado_sin_nombre_23"/><linearGradient id="Degradado_sin_nombre_23-17" x1="1081.51" y1="880.77" x2="1081.51" y2="806.38" xlink:href="#Degradado_sin_nombre_23"/><linearGradient id="Degradado_sin_nombre_23-18" x1="1081.51" y1="806.38" x2="1081.51" y2="880.77" xlink:href="#Degradado_sin_nombre_23"/><linearGradient id="Degradado_sin_nombre_23-19" x1="1134.24" y1="881.36" x2="1134.24" y2="811.66" xlink:href="#Degradado_sin_nombre_23"/><linearGradient id="Degradado_sin_nombre_23-20" x1="1134.24" y1="811.66" x2="1134.24" y2="881.36" xlink:href="#Degradado_sin_nombre_23"/><linearGradient id="Degradado_sin_nombre_10-2" x1="1067.44" y1="872.66" x2="1067.44" y2="857.71" xlink:href="#Degradado_sin_nombre_10"/><linearGradient id="Degradado_sin_nombre_10-3" x1="1097.6" y1="876.68" x2="1097.6" y2="858.58" xlink:href="#Degradado_sin_nombre_10"/><linearGradient id="Degradado_sin_nombre_10-4" x1="1023.54" y1="872.3" x2="1023.54" y2="850.15" xlink:href="#Degradado_sin_nombre_10"/><linearGradient id="Degradado_sin_nombre_10-5" x1="966.32" y1="871.38" x2="966.32" y2="838.66" xlink:href="#Degradado_sin_nombre_10"/><linearGradient id="Degradado_sin_nombre_10-6" x1="943.77" y1="870.84" x2="943.77" y2="832.88" xlink:href="#Degradado_sin_nombre_10"/><linearGradient id="Degradado_sin_nombre_10-7" x1="880.61" y1="870.39" x2="880.61" y2="822.09" xlink:href="#Degradado_sin_nombre_10"/><linearGradient id="Degradado_sin_nombre_10-8" x1="676.78" y1="867.74" x2="676.78" y2="842.37" xlink:href="#Degradado_sin_nombre_10"/><linearGradient id="Degradado_sin_nombre_10-9" x1="789.66" y1="869.2" x2="789.66" y2="823.51" xlink:href="#Degradado_sin_nombre_10"/><linearGradient id="Degradado_sin_nombre_10-10" x1="537.76" y1="865.92" x2="537.76" y2="808.71" xlink:href="#Degradado_sin_nombre_10"/><linearGradient id="Degradado_sin_nombre_10-11" x1="376.89" y1="863.99" x2="376.89" y2="806.45" xlink:href="#Degradado_sin_nombre_10"/><linearGradient id="Degradado_sin_nombre_10-12" x1="196.64" y1="859.89" x2="196.64" y2="795.88" xlink:href="#Degradado_sin_nombre_10"/><linearGradient id="Degradado_sin_nombre_10-13" x1="1138.18" y1="877.36" x2="1138.18" y2="867.81" xlink:href="#Degradado_sin_nombre_10"/></defs><g id="Capa_6" data-name="Capa 6"><path class="cls-1" d="M1177.23,861.94v8.66a38.65,38.65,0,0,1-3,15.66c-4.12,9.45-12.21,15.1-21.63,15.1h-.32l-10.87-.15-23.91-.34-19.67-.27-2.77,0h-.4l-20.39-.28-4.82-.07-10.2-.15L1049,899.9l-9.37-.13-42.8-.6-19.53-.28-10.81-.15-12.21-.17-8.81-.13-11.61-.16-7.82-.11-19.45-.27-38.25-.55L856,897.18l-33.18-.47h-.07l-65-.91h-.55l-38.81-.55h0l-4.38-.06-124.44-1.75h-.72l-2.9,0L495.47,892l.08.14-91.16-1.28-47.34-.67L343.28,890l-84.07-1.18-69.45-1-98.6-1.39L90,867.93,82.9,755.16,60.84,731.92l-36.5-38.45,52.81,4.76,155.33,14,36,3.25a38.47,38.47,0,0,1,17.85,6.32l-4.15-5.08L329.64,721l75,6.76,6.05.55,5.18.48,40.3,3.62,131,11.83.69.07,22.11,2,85.89,7.76h0l40.3,3.64,63.8,5.76,22.58,2L838.46,767l43.21,3.9,37.06,3.35,13.3,1.2,14.46,1.3,8.33.76.34,0,35.8,3.23,28.86,2.6,2.79.25h0l18.62,1.68,13.31,1.2,14.12,1.27,10.66,1,25.32,2.29,8.41.76,44.94,4,18.19,1.65v52.11c.1.5.19,1,.26,1.5.23,1.47.41,3.09.55,5S1177.23,859.86,1177.23,861.94Z" transform="translate(8.81 -677.43)"/><path class="cls-2" d="M24.34,693.47l52.81,4.76,155.33,14,36,3.25a38.47,38.47,0,0,1,17.85,6.32l-4.15-5.08L329.64,721l75,6.76,6.05.55,5.18.48,40.3,3.62,131,11.83.69.07,22.11,2,85.89,7.76h0l40.3,3.64,63.8,5.76,22.58,2L838.46,767l43.21,3.9,37.06,3.35,13.3,1.2,14.46,1.3,8.33.76.34,0,35.8,3.23,28.86,2.6,2.79.25h0l18.62,1.68,13.31,1.2,14.12,1.27,10.66,1,25.32,2.29,8.41.76,44.94,4,18.19,1.65v52.11c.1.5.19,1,.26,1.5.23,1.47.41,3.09.55,5s.22,3.85.22,5.93v8.66a38.65,38.65,0,0,1-3,15.66c-4.12,9.45-12.21,15.1-21.63,15.1h-.32l-10.87-.15-23.91-.34-19.67-.27-2.77,0h-.4l-20.39-.28-4.82-.07-10.2-.15L1049,899.9l-9.37-.13-42.8-.6-19.53-.28-10.81-.15-12.21-.17-8.81-.13-11.61-.16-7.82-.11-19.45-.27-38.25-.55L856,897.18l-33.18-.47h-.07l-65-.91h-.55l-38.81-.55h0l-4.38-.06-124.44-1.75h-.72l-2.9,0L495.47,892l.08.14-91.16-1.28-47.34-.67L343.28,890l-84.07-1.18-69.45-1-98.6-1.39L90,867.93,82.9,755.16,60.84,731.92l-36.5-38.45m-33.15-16,23.72,25,36.5,38.45,18.81,19.82L77,868.75l1.16,18.47.75,12,12,.17,98.6,1.39,69.45,1L343.1,903l13.77.19,47.34.67,91.16,1.28,22.76.32-.06-.11,67.66,1.06,2.88,0h.76l124.44,1.75,4.38.06h.12l38.72.55h.55l65,.91h.16l33.09.47,12.37.17,38.24.55,19.46.27,7.82.11,11.61.16,8.8.13,12.22.17,10.81.15,19.52.28,42.81.6,9.37.13L1059,913l10.19.15,4.82.07,20.32.28h.47l2.77,0,19.68.27,23.91.34,10.49.14.23,0h.65c14.53,0,27.39-8.78,33.55-22.9a51.6,51.6,0,0,0,4.11-20.88v-8.64c0-2.48-.09-4.82-.26-7s-.38-4.06-.65-5.83c0-.28-.08-.54-.12-.79V785.57l-11.82-1.08-18.19-1.65-44.94-4.05-8.41-.76-25.32-2.29-10.66-1-14.13-1.27-13.3-1.2-6.79-.61h0l-11.84-1.07-2.79-.25-28.85-2.6-35.8-3.23-.36,0-8.3-.76-14.48-1.3-13.29-1.2-37.06-3.35L839.63,754l-15.89-1.43-22.58-2-63.8-5.76-40.3-3.64-14.17-1.28h0l-71.72-6.48-22-2-.62-.06h-.14l-131-11.83L417,715.87l-5.14-.47-6.07-.56-75-6.76-47.48-4.29-13.28-1.2-.4,0-36-3.25-155.33-14-52.81-4.76-34.32-3.09Z" transform="translate(8.81 -677.43)"/></g><g id="Capa_7" data-name="Capa 7"><path class="cls-3" d="M100.56,876.55,92.65,750.91,49.84,705.82l217.61,19.64c7.95.72,14.89,4.49,20.64,11.2a36,36,0,0,1,8.83,22l2.79,53.78c.46,8.72-2,16.22-7.18,22.3a25.87,25.87,0,0,1-20.08,9.38h0l-1,0L177,840.84l2.19,36.82ZM226,791.77,225.16,776l-52.28-3.72,1,16.8Z" transform="translate(8.81 -677.43)"/><path class="cls-1" d="M75.35,718.16l191.21,17.26q7.94.71,13.93,7.74a26.09,26.09,0,0,1,6.44,16l2.8,53.78q.47,9.15-4.79,15.26a15.82,15.82,0,0,1-12.49,5.9l-.65,0-105.48-3.59,2.2,37L110,866.68l-7.56-120-27.05-28.5m161.28,84.17-2-35.66-72.44-5.16,2.2,37.12,72.21,3.7M24.34,693.47l36.5,38.46L82.9,755.16,90,867.94l1.16,18.48,18.52.26,58.56.82,21.52.31-1.28-21.49-.89-15.11,83.53,2.84c.44,0,.89,0,1.33,0a36,36,0,0,0,27.66-12.87c6.86-8,10.17-18.12,9.59-29.33l-2.8-53.78a45.72,45.72,0,0,0-11.2-27.93c-7.41-8.65-16.86-13.73-27.35-14.67L77.15,698.24l-52.81-4.77Z" transform="translate(8.81 -677.43)"/><path class="cls-3" d="M410.8,880.92l-9.8-21-42.22-1.14-8.48,21.32L274.59,879l54.46-120.8L305,728.85l104.34,9.41,70.09,143.62ZM379,812.58,378,810.36l-.85,2.14Z" transform="translate(8.81 -677.43)"/><path class="cls-1" d="M327.85,741l75,6.77,60.48,123.94L417.22,871l-9.78-21-55.37-1.49L343.56,870,290,869.22l50.75-112.57L327.85,741m67.22,82.34L378.94,789l-3.08-.2-13.31,33.13,32.52,1.41M282.16,716.74l30.22,36.89,5,6.11L271.74,861l-12.53,27.79,30.48.42,53.59.76,13.77.19,5.09-12.8,3.35-8.42,29.06.78,4.54,9.74,5.3,11.37,12.54.18,46.1.65,32.52.45-14.27-29.22L420.8,739l-4.94-10.14-11.23-1-75-6.77-47.48-4.29Z" transform="translate(8.81 -677.43)"/><path class="cls-3" d="M466.1,881.5l-4.23-103-29.35-38.19L586.3,754.24c4.53.41,11.08,2.54,16.57,10.37a33.36,33.36,0,0,1,6,18.41l2.43,72.45a29.93,29.93,0,0,1-5.13,18.64c-4.21,6-10.21,9.32-16.9,9.32Zm88.35-46.41-1.28-35.74-31.88-2.27,1.43,37Z" transform="translate(8.81 -677.43)"/><path class="cls-1" d="M454.36,752.37l131,11.83q5.31.48,9.29,6.15a23.58,23.58,0,0,1,4.21,13l2.43,72.45A20.22,20.22,0,0,1,598,868.38q-3.54,5-8.7,5h-.15L475.7,871.65l-4-96.68-17.37-22.6m110.47,93.07-2-55.43-52-3.7,2.23,57.41,51.74,1.72M410.68,728.34l27.82,36.22L452,782.13l3.71,90.34.77,18.88,18.9.29,113.44,1.79h.47c10,0,19-4.82,25.08-13.58,4.92-7,7.25-15.33,6.93-24.71l-2.43-72.45a43.17,43.17,0,0,0-7.82-23.82c-7.7-11-17.23-14-23.86-14.59l-131-11.83-45.48-4.11Zm121.67,96-.64-16.5,11.79.83.57,16.06-11.72-.39Z" transform="translate(8.81 -677.43)"/><path class="cls-3" d="M615.36,883.62l-3-93.84-24.55-35.41L716.52,766c4.23.38,10.3,2.45,15.19,10.11a32.54,32.54,0,0,1,5,16.92l1.71,65.91A29.61,29.61,0,0,1,734,876c-5.14,8-12,9.21-15.65,9.21ZM688,839.51l-.85-30.63-22.64-1.61,1,31.49Z" transform="translate(8.81 -677.43)"/><path class="cls-1" d="M608.2,766.26,715.62,776q4.38.4,7.66,5.53a22.64,22.64,0,0,1,3.43,11.8l1.71,65.91a19.87,19.87,0,0,1-2.81,11.45c-2,3.07-4.39,4.61-7.24,4.61h-.11l-93.21-1.48-2.81-87.26-14-20.25m90.08,83.59-1.4-50.31-42.71-3,1.58,51.94,42.53,1.4M567.39,742.49l24.37,35.16,10.68,15.41,2.62,81.35.61,19.05,19.06.31,93.21,1.47h.43c9.67,0,18.44-5,24.07-13.81a39.5,39.5,0,0,0,6-22.77l-1.71-65.91a42.38,42.38,0,0,0-6.56-22c-7.45-11.68-17.44-14.22-22.73-14.7L610,746.34l-42.61-3.85Zm107.78,86.59L674.83,818l2.56.18.31,10.95-2.53-.08Z" transform="translate(8.81 -677.43)"/><path class="cls-3" d="M757.9,885.81c-3.57,0-10.35-1.34-15.53-9.39A31.24,31.24,0,0,1,737.55,860L736,795.52l.09-.72a27.39,27.39,0,0,1,27.17-24.11c.76,0,1.54,0,2.3.1l56.1,4.69c4.09.37,9.83,2.39,14.25,9.94a32,32,0,0,1,4.23,15.68l1.2,60.63a29.49,29.49,0,0,1-3.79,15.71c-4.71,8.07-11.29,9.28-14.78,9.28ZM797,843.12l-.56-26.47-13.63-1,.63,27Z" transform="translate(8.81 -677.43)"/><path class="cls-1" d="M763.21,780.69q.74,0,1.47.06l56.09,4.69q3.72.34,6.46,5a21.87,21.87,0,0,1,2.86,10.83l1.2,60.63a19.59,19.59,0,0,1-2.42,10.47q-2.52,4.32-6.15,4.32h-.09L758,875.81c-2.8,0-5.23-1.64-7.26-4.8a21.45,21.45,0,0,1-3.24-11.31L746,796a17.39,17.39,0,0,1,17.25-15.31m44,72.77-1-46.14-33.68-2.4,1.1,47.43,33.56,1.11m-44-92.77a37.4,37.4,0,0,0-37.1,32.91l-.18,1.44,0,1.45,1.58,63.71A41.21,41.21,0,0,0,734,881.85c7.7,12,18.21,13.88,23.79,14l64.59.9h.37c9.6,0,18.14-5.19,23.42-14.24a39.37,39.37,0,0,0,5.15-20.94l-1.2-60.63a41.82,41.82,0,0,0-5.59-20.54c-6.93-11.82-16.71-14.38-21.93-14.85h-.13l-56.1-4.69c-1-.09-2.09-.13-3.13-.13Z" transform="translate(8.81 -677.43)"/><path class="cls-3" d="M856.23,887.19c-3.44-.05-9.91-1.33-14.63-9.33a30.91,30.91,0,0,1-4.09-15.31l-1-56.08-18.13-31.29,103.83,9.37.61,41.09-43.64-3.11.41,23.32,43.56,1.44.61,40.85Z" transform="translate(8.81 -677.43)"/><path class="cls-1" d="M836.66,786.88l75.64,6.82.31,21.19-43.67-3.11.76,43.75L913.24,857l.31,21-57.18-.81q-3.58,0-6.16-4.41a21,21,0,0,1-2.7-10.42L846.4,803.7l-9.74-16.82M800,763.49l19.36,33.41,7.16,12.35,1,53.49A40.77,40.77,0,0,0,833,883c5.26,8.91,13.68,14.11,23.1,14.24l57.18.8,20.59.29-.31-20.58-.31-21L933,837.61,913.9,837l-24.53-.81,0-2.89,21.87,1.56,21.74,1.55-.32-21.8-.32-21.18-.26-18-17.94-1.62L838.46,767,800,763.49Z" transform="translate(8.81 -677.43)"/><polygon class="cls-3" points="969.34 211.23 964.57 201.63 964.7 211.16 925.27 210.61 924.2 134.91 908.11 105.06 963.38 110.05 963.49 118.33 968.67 110.53 1013.87 114.61 985.79 157.2 1013.28 211.85 969.34 211.23"/><path class="cls-1" d="M916.93,794.12l27.76,2.51.41,31.66,19.79-29.84,22.61,2L965.44,834l22.69,45.1-21.36-.3-13.32-26.83-7.89,11.64.19,14.89-19.43-.27-1-68.43-8.42-15.63m-35.26-23.26,17.65,32.75,6.1,11.32.9,63.53.27,19.44,19.45.27,19.43.28,8.81.12h0l12.21.17,21.36.3,33,.47L1006,870.06,988.51,835.3l15.69-23.8,18.41-27.92-33.31-3-22.61-2-11.87-1.07-8.33-.75-27.76-2.51-37.06-3.34Z" transform="translate(8.81 -677.43)"/><polygon class="cls-3" points="996.02 211.61 995.31 140.19 980.98 111.64 1067.53 119.45 1067.78 156.17 1065.63 156.01 1065.76 176.02 1067.92 176.09 1068.16 212.62 996.02 211.61"/><path class="cls-1" d="M989.17,800.64l59.61,5.38.12,16.82-35.3-2.58.11,12.57,33.11,2,.11,16.21-33.07-1.45.11,12.52,35.2,1.1.11,16.7-52.17-.74-.63-64-7.31-14.56m-34-23.15,16.13,32.13L976.52,820l.59,59.34.19,19.53,19.53.27,52.17.74,20.42.28-.14-20.42-.11-16.7-.13-19.25-.14-21.12-.12-16.81-.12-18.15-18.08-1.64L991,780.72l-35.8-3.23Z" transform="translate(8.81 -677.43)"/><path class="cls-3" d="M1088.85,890.47l-4.33-9.46,0,9.4-35-.5-.42-67.64-12.87-27.42,67,6.06c3,.27,8.54,1.88,12,9.65a30.34,30.34,0,0,1,2.43,12.26l.09,27.46a28.74,28.74,0,0,1-2.45,12.26,20.81,20.81,0,0,1-1.28,2.36L1125.83,891Z" transform="translate(8.81 -677.43)"/><path class="cls-1" d="M1052.74,806.38l49.69,4.49q2.17.2,3.74,3.74a20.3,20.3,0,0,1,1.58,8.25l.09,27.46a18.79,18.79,0,0,1-1.52,8q-1.52,3.25-3.61,3.25h-.1l-1,0,8.63,19.21-15-.21L1086.38,861l-12-.42.1,19.65-15-.21-.37-60-6.4-13.63m40.68,37.26-.07-15.89-19.11-1.36.08,16.22,19.1,1m-73.6-60.31,14.81,31.55,4.53,9.65.35,55.65.12,19.59,19.59.28,15,.21,20.39.29h.4l15,.21,31.38.45-12.86-28.64-3.35-7.46a39.38,39.38,0,0,0,2.67-14.86l-.09-27.46a40.18,40.18,0,0,0-3.29-16.27c-5.72-12.92-16-15.2-20.23-15.57l-49.69-4.49-34.72-3.13Z" transform="translate(8.81 -677.43)"/><path class="cls-3" d="M1107.78,890.73l-.1-37.33,4.53.15c-.45-.58-.9-1.23-1.38-2a19.43,19.43,0,0,1-2.51-5.62,40.42,40.42,0,0,1-1-5.06,47.92,47.92,0,0,1-.43-6.48l0-7.89-11.58-26.36,70.89,6.4,0,36.37-3.23-.23a14.51,14.51,0,0,1,1.51,2.83c.25.63.54,1.39.89,2.31a24.18,24.18,0,0,1,1.21,4.7c.19,1.23.34,2.62.46,4.23s.19,3.32.19,5.16v8.66a29,29,0,0,1-2.2,11.66c-3.58,8.21-9.92,9.09-12.47,9.09Z" transform="translate(8.81 -677.43)"/><path class="cls-1" d="M1111.25,811.66l44.94,4.06v16.5l-26-1.85v6.51c8.79,3.87,14.6,6.32,17.53,7.39.24.09.69.23,1.35.44l1.38.45a9.59,9.59,0,0,1,1.27.53,4.87,4.87,0,0,1,1.29.85l1.13,1.15a4.81,4.81,0,0,1,1,1.56c.23.57.5,1.27.81,2.11a14.06,14.06,0,0,1,.69,2.72c.15,1,.28,2.13.38,3.48s.16,2.81.16,4.39v8.66a19,19,0,0,1-1.35,7.65q-1.37,3.11-3.31,3.1h0l-34.78-.49,0-17.13,27,.89v-6.38c-8.63-3.66-14.55-6-17.63-7-.23-.08-.55-.2-1-.37q-1.31-.37-2-.63a18.17,18.17,0,0,1-1.79-.83,5.94,5.94,0,0,1-1.77-1.33,19.78,19.78,0,0,1-1.44-2,9.8,9.8,0,0,1-1.22-2.77,32.11,32.11,0,0,1-.75-3.83,39.17,39.17,0,0,1-.33-5.11l0-10-5.61-12.77m-31.93-23,13.62,31,3.94,8.95v5.8a58.53,58.53,0,0,0,.53,7.86c.07.52.15,1,.23,1.5l0,20,0,17.14,0,19.66,19.67.28,34.78.49h.32c9.42,0,17.51-5.64,21.63-15.09a38.65,38.65,0,0,0,3-15.66V862c0-2.09-.07-4.08-.22-5.93s-.32-3.49-.55-5c-.07-.5-.16-1-.26-1.49V797.44L1158,795.8l-44.94-4.06-33.73-3Z" transform="translate(8.81 -677.43)"/><path class="cls-4" d="M75.35,718.16l27.05,28.5,7.56,120,58.56.83-2.2-37,105.48,3.59a15.85,15.85,0,0,0,13.14-5.88q5.26-6.12,4.79-15.26l-2.8-53.78a26.09,26.09,0,0,0-6.44-16q-6-7-13.93-7.74Zm89.07,80.47-2.2-37.12,72.44,5.16,2,35.66Z" transform="translate(8.81 -677.43)"/><path class="cls-5" d="M93.2,726.8l172.73,15.59c3.42.31,6.44,2.05,9.24,5.32a19.05,19.05,0,0,1,4.77,11.79l2.8,53.79c.22,4.26-.8,7.64-3.1,10.33a8.88,8.88,0,0,1-7.19,3.46H272l-105.48-3.59-7.69-.27.46,7.68,1.75,29.51-44.54-.63-7.15-113.55-.16-2.54-1.75-1.84-14.28-15m150.85,82.92-.43-7.78-2-35.66-.34-6.16-6.15-.44-72.45-5.15-8-.57.47,8,2.21,37.12.37,6.25,6.26.32,72.2,3.7,7.78.4M75.35,718.16l27.05,28.5,7.56,120,58.56.83-2.2-37,105.48,3.59.65,0a15.82,15.82,0,0,0,12.49-5.9q5.26-6.12,4.79-15.26l-2.8-53.78a26.09,26.09,0,0,0-6.44-16q-6-7-13.93-7.74L75.35,718.16Zm161.28,84.17-72.21-3.7-2.2-37.12,72.44,5.16,2,35.66Z" transform="translate(8.81 -677.43)"/><path class="cls-6" d="M327.85,741l12.87,15.7L290,869.22l53.59.75,8.51-21.4,55.37,1.49,9.78,21,46.09.65L402.83,747.72Zm48,47.8,3.08.2,16.13,34.34-32.52-1.41Z" transform="translate(8.81 -677.43)"/><path class="cls-7" d="M343.84,749.42l54.43,4.91L452,864.5l-30.33-.43-7.91-17L412,843.18l-4.33-.11-55.37-1.5-4.89-.13L345.56,846l-6.73,16.92-38.09-.53L347.1,759.53l1.78-4-2.75-3.35-2.29-2.8m62.49,81.36-4.92-10.47L385.27,786l-1.76-3.75-4.13-.26-3.08-.2-5.05-.32-1.89,4.7-13.3,33.13-3.69,9.18,9.88.42,32.52,1.41,11.56.5M327.85,741l12.87,15.7L290,869.22l53.59.75,8.51-21.4,55.37,1.49,9.78,21,46.09.65L402.83,747.72l-75-6.77Zm67.22,82.34-32.52-1.41,13.31-33.13,3.08.2,16.13,34.34Z" transform="translate(8.81 -677.43)"/><path class="cls-8" d="M454.36,752.37,471.73,775l4,96.68,113.45,1.78q5.26.08,8.85-5a20.22,20.22,0,0,0,3.33-12.57l-2.43-72.45a23.58,23.58,0,0,0-4.21-13q-4-5.67-9.29-6.15Zm58.73,91.35-2.23-57.41,52,3.7,2,55.43Z" transform="translate(8.81 -677.43)"/><path class="cls-9" d="M469.65,760.78l115.12,10.39c.51.05,2.07.19,4.19,3.2a16.52,16.52,0,0,1,2.94,9.22L594.33,856a13.27,13.27,0,0,1-2.06,8.32c-1.44,2-2.42,2.07-3,2.07h0l-106.84-1.68-3.7-90.06-.09-2.22-1.35-1.76-7.63-9.93m102.44,91.9-.27-7.49-2-55.43-.22-6.29-6.28-.44-52-3.7-7.79-.55.3,7.8L506.1,844l.25,6.51,6.51.21,51.73,1.71,7.5.25M454.36,752.37,471.73,775l4,96.68,113.45,1.78h.15q5.16,0,8.7-5a20.22,20.22,0,0,0,3.33-12.57l-2.43-72.45a23.58,23.58,0,0,0-4.21-13q-4-5.67-9.29-6.15l-131-11.83Zm110.47,93.07-51.74-1.72-2.23-57.41,52,3.7,2,55.43Z" transform="translate(8.81 -677.43)"/><path class="cls-10" d="M608.2,766.26l14,20.25,2.81,87.26,93.21,1.48q4.35.06,7.35-4.61a19.87,19.87,0,0,0,2.81-11.45l-1.71-65.91a22.64,22.64,0,0,0-3.43-11.8q-3.27-5.13-7.66-5.53Zm47.55,82.19-1.58-51.94,42.71,3,1.4,50.31Z" transform="translate(8.81 -677.43)"/><path class="cls-11" d="M622.48,774.57,715,782.92c.59.06,1.51,1,2.38,2.32a15.55,15.55,0,0,1,2.34,8.22l1.71,65.91a13,13,0,0,1-1.7,7.49c-.53.82-1.08,1.39-1.35,1.39l-86.54-1.38-2.59-80.58-.07-2.07-1.18-1.7-5.51-7.95m83,82.53-.2-7.44-1.4-50.31L703.7,793l-6.32-.45-42.71-3-7.73-.55.24,7.75,1.57,51.94.2,6.57,6.56.21,42.54,1.41,7.43.25M608.2,766.26l14,20.25,2.81,87.26,93.21,1.48h.11c2.85,0,5.27-1.54,7.24-4.61a19.87,19.87,0,0,0,2.81-11.45l-1.71-65.91a22.64,22.64,0,0,0-3.43-11.8q-3.27-5.13-7.66-5.53L608.2,766.26Zm90.08,83.59-42.53-1.4-1.58-51.94,42.71,3,1.4,50.31Z" transform="translate(8.81 -677.43)"/><path class="cls-12" d="M762.27,780.16A15,15,0,0,0,746,796h0l1.58,63.7A21.45,21.45,0,0,0,750.78,871c2,3.16,4.46,4.76,7.26,4.8l64.59.91q3.69,0,6.24-4.32a19.59,19.59,0,0,0,2.42-10.47l-1.2-60.63a21.87,21.87,0,0,0-2.86-10.83q-2.75-4.68-6.46-5Zm11.34,72.19-1.1-47.43,33.68,2.4,1,46.14Z" transform="translate(8.81 -677.43)"/><path class="cls-13" d="M760.9,787.1l.74,0L820,792.4a5.67,5.67,0,0,1,1.24,1.61,14.88,14.88,0,0,1,1.9,7.43l1.2,60.63a12.61,12.61,0,0,1-1.47,6.8,5.11,5.11,0,0,1-.58.84l-64.14-.9c-.11,0-.67-.39-1.44-1.6a14.46,14.46,0,0,1-2.12-7.68L753,795.82v-.25a8,8,0,0,1,7.95-8.47m53.43,73.6-.16-7.39-1-46.14-.13-6.38-6.37-.45L773,797.94l-7.68-.54.18,7.69,1.1,47.42.16,6.62,6.61.21,33.56,1.12,7.39.24M760.9,780.1A15,15,0,0,0,746,796l1.58,63.7A21.45,21.45,0,0,0,750.78,871c2,3.16,4.46,4.76,7.26,4.8l64.59.91h.09q3.63,0,6.15-4.32a19.59,19.59,0,0,0,2.42-10.47l-1.2-60.63a21.87,21.87,0,0,0-2.86-10.83q-2.75-4.68-6.46-5l-58.5-5.28c-.46,0-.92-.06-1.37-.06Zm46.27,73.36-33.56-1.11-1.1-47.43,33.68,2.4,1,46.14Z" transform="translate(8.81 -677.43)"/><path class="cls-14" d="M912.3,793.7l-75.64-6.82,9.74,16.82,1.11,58.66a21,21,0,0,0,2.7,10.42q2.58,4.37,6.16,4.41l57.18.81-.31-21-43.54-1.44-.76-43.75,43.67,3.11Z" transform="translate(8.81 -677.43)"/><path class="cls-15" d="M849.49,795.06l55.9,5.05.11,7.26-36.07-2.57-7.62-.54.13,7.65.76,43.74.12,6.65,6.65.23,36.87,1.22.11,7.15-49.51-.7a5.32,5.32,0,0,1-.7-1,14,14,0,0,1-1.73-7l-1.11-58.66,0-1.81-.91-1.57-3-5.13m-12.83-8.18,9.74,16.82,1.11,58.66a21,21,0,0,0,2.7,10.42q2.58,4.37,6.16,4.41l57.18.81-.31-21-43.54-1.44-.76-43.75,43.67,3.11-.31-21.19-75.64-6.82Z" transform="translate(8.81 -677.43)"/><path class="cls-16" d="M964.89,798.45,945.1,828.29l-.41-31.66-27.76-2.51,8.42,15.63,1,68.43,19.43.27-.19-14.89,7.89-11.64,13.32,26.83,21.36.3L965.44,834l22.06-33.46Z" transform="translate(8.81 -677.43)"/><path class="cls-17" d="M929.27,802.26l8.5.77.33,25.35.29,22.68,12.54-18.9,17.49-26.36,6.8.61L959.6,830.1l-2.23,3.38,1.82,3.62,17.5,34.79-5.55-.08-11.42-23-5.34-10.74L947.65,848l-7.89,11.64-1.23,1.82,0,2.2.1,7.7-5.44-.08-.87-61.62,0-1.71-.81-1.51-2.24-4.17m-12.34-8.14,8.42,15.63,1,68.43,19.43.27-.19-14.89,7.89-11.64,13.32,26.83,21.36.3L965.44,834l22.06-33.46-22.61-2L945.1,828.29l-.41-31.66-27.76-2.51Z" transform="translate(8.81 -677.43)"/><path class="cls-18" d="M1048.78,806l-59.61-5.38,7.31,14.56.63,64,52.17.74-.11-16.7-35.2-1.1-.11-12.52,33.07,1.45-.11-16.21-33.11-2-.11-12.57,35.3,2.58Z" transform="translate(8.81 -677.43)"/><path class="cls-19" d="M1001.07,808.75l40.76,3.67,0,2.88-27.74-2-7.58-.55.07,7.59.11,12.57.06,6.53,6.52.39,26.58,1.61v2.3l-25.71-1.13-7.37-.32.06,7.38.11,12.52.06,6.72,6.72.21,28.47.9,0,2.81-38.2-.54-.56-57.14,0-1.62-.73-1.45-1.66-3.31m-11.9-8.11,7.31,14.56.63,64,52.17.74-.11-16.7-35.2-1.1-.11-12.52,33.07,1.45-.11-16.21-33.11-2-.11-12.57,35.3,2.58-.12-16.82-59.61-5.38Z" transform="translate(8.81 -677.43)"/><path class="cls-20" d="M1102.61,861.59c1.45,0,2.68-1,3.71-3.25a18.79,18.79,0,0,0,1.52-8l-.09-27.46a20.3,20.3,0,0,0-1.58-8.25q-1.56-3.54-3.74-3.74l-49.69-4.49,6.4,13.63.37,60,15,.21-.1-19.65,12,.42,8.93,19.53,15,.21-8.63-19.21Zm-28.29-19-.08-16.22,19.11,1.36.07,15.89Z" transform="translate(8.81 -677.43)"/><path class="cls-21" d="M1064.26,814.45l35.61,3.21a13.86,13.86,0,0,1,.88,5.22l.09,27.46a13.73,13.73,0,0,1-.53,4.17l-9.36-.33-4.32-.15-12-.42-7.28-.25,0,7.29.06,12.51h-1l-.32-53.19v-1.54l-.66-1.39-1.21-2.58M1100.45,851l0-7.42-.07-15.89,0-6.5-6.47-.46-19.12-1.36-7.53-.53,0,7.55.08,16.23,0,6.59,6.59.36,19.09,1,7.41.4m-47.71-44.65,6.4,13.63.37,60,15,.21-.1-19.65,12,.42,8.93,19.53,15,.21-8.63-19.21,1,0h.1q2.1,0,3.61-3.25a18.79,18.79,0,0,0,1.52-8l-.09-27.46a20.3,20.3,0,0,0-1.58-8.25q-1.56-3.54-3.74-3.74l-49.69-4.49Zm40.68,37.26-19.1-1-.08-16.22,19.11,1.36.07,15.89Z" transform="translate(8.81 -677.43)"/><path class="cls-22" d="M1130.21,836.88v-6.51l26,1.85v-16.5l-44.94-4.06,5.61,12.77,0,10a39.17,39.17,0,0,0,.33,5.11,32.11,32.11,0,0,0,.75,3.83,9.8,9.8,0,0,0,1.22,2.77,19.78,19.78,0,0,0,1.44,2,5.94,5.94,0,0,0,1.77,1.33,18.17,18.17,0,0,0,1.79.83q.64.25,2,.63c.41.17.73.29,1,.37,3.08,1,9,3.36,17.63,7v6.38l-27-.89,0,17.13,34.78.49q2,0,3.35-3.1a19,19,0,0,0,1.35-7.65V862c0-1.58,0-3-.16-4.39s-.23-2.51-.38-3.48a14.06,14.06,0,0,0-.69-2.72c-.31-.84-.58-1.54-.81-2.11a4.81,4.81,0,0,0-1-1.56l-1.13-1.15a4.87,4.87,0,0,0-1.29-.85,9.59,9.59,0,0,0-1.27-.53l-1.38-.45c-.66-.21-1.11-.35-1.35-.44-2.93-1.07-8.74-3.52-17.53-7.39Z" transform="translate(8.81 -677.43)"/><path class="cls-23" d="M1122.43,819.7l26.76,2.41v2.59l-18.49-1.31-6.86-.49-.57-1.28-.84-1.92m2.6,22.55,2.36,1c3.91,1.72,7.23,3.16,10,4.33-3.51-1.41-6.15-2.4-8-3l-.68-.26-.28-.11-.3-.09c-1-.29-1.35-.42-1.46-.46s-.27-.11-.94-.46c-.15-.2-.38-.51-.67-1l0,0m18.88,8c.52.21,1,.39,1.43.54l.06,0,.06,0,1.47.48,1.33.43.21.09.4.41,0,.12-1.44-.62-3.56-1.5M1124.72,871l19.79.66,5.69.19a12.61,12.61,0,0,1-.36,2.5l-25.11-.35v-3m-13.47-59.31,5.61,12.77,0,10a39.17,39.17,0,0,0,.33,5.11,32.11,32.11,0,0,0,.75,3.83,9.8,9.8,0,0,0,1.22,2.77,19.78,19.78,0,0,0,1.44,2,5.94,5.94,0,0,0,1.77,1.33,18.17,18.17,0,0,0,1.79.83q.64.25,2,.63c.41.17.73.29,1,.37,3.08,1,9,3.36,17.63,7v6.38l-27-.89,0,17.13,34.78.49h0q2,0,3.31-3.1a19,19,0,0,0,1.35-7.65V862c0-1.58,0-3-.16-4.39s-.23-2.51-.38-3.48a14.06,14.06,0,0,0-.69-2.72c-.31-.84-.58-1.54-.81-2.11a4.81,4.81,0,0,0-1-1.56l-1.13-1.15a4.87,4.87,0,0,0-1.29-.85,9.59,9.59,0,0,0-1.27-.53l-1.38-.45c-.66-.21-1.11-.35-1.35-.44-2.93-1.07-8.74-3.52-17.53-7.39v-6.51l26,1.85v-16.5l-44.94-4.06Z" transform="translate(8.81 -677.43)"/><path class="cls-24" d="M1068,872.66l-1,0-.09-14.93,1,.07v2.36Z" transform="translate(8.81 -677.43)"/><path class="cls-25" d="M1105.34,876.68l-7.26-.1-8.23-18c2.5,0,5,.07,7.4.08Z" transform="translate(8.81 -677.43)"/><path class="cls-26" d="M1042.74,872.3l-38.19-.54-.22-21.61,3,.56.1,10.95.06,6.73,6.72.21,28.46.89Z" transform="translate(8.81 -677.43)"/><path class="cls-27" d="M977.2,871.38l-5.56-.08-11.42-23-4.78-9.64,6.12,1.62Z" transform="translate(8.81 -677.43)"/><path class="cls-28" d="M954.34,838.37l-6.18,9.12-7.89,11.64L939,861l0,2.2.1,7.69-5.43-.08-.54-37.88c1.84.46,3.68.92,5.5,1.39l.21,16.29,9.18-13.85Z" transform="translate(8.81 -677.43)"/><path class="cls-29" d="M907,870.39l-49.51-.7a6.8,6.8,0,0,1-.7-1,14.32,14.32,0,0,1-1.73-7l-.74-39.63c2.71,0,5.49.12,8.37.25l.57,32.8.12,6.66L870,862l36.87,1.22Z" transform="translate(8.81 -677.43)"/><path class="cls-30" d="M720.22,866.35c-.52.82-1.08,1.39-1.35,1.39l-86.53-1.37L631.62,844c5.59.64,11.42,1.15,17.56,1.48l.08,2.68.19,6.57,6.57.21,42.53,1.41,7.44.25-.21-7.44-.14-5.08q4.26-.39,8.7-.87c2.44-.27,4.82-.54,7.15-.83l.43,16.49A12.83,12.83,0,0,1,720.22,866.35Z" transform="translate(8.81 -677.43)"/><path class="cls-31" d="M824.8,861.56a12.8,12.8,0,0,1-1.47,6.8,6.8,6.8,0,0,1-.58.84l-64.14-.9a4.24,4.24,0,0,1-1.45-1.59,14.52,14.52,0,0,1-2.11-7.69l-.54-21.82c4.26-.81,8.31-1.64,12.21-2.46l.4,17.26.15,6.62,6.62.22L807.45,860l7.39.24-.16-7.39-.59-27.94c3.26-.51,6.56-1,10-1.35Z" transform="translate(8.81 -677.43)"/><path class="cls-32" d="M592.77,863.85c-1.43,2-2.42,2.07-3,2.07h0l-106.83-1.68-2.28-55.53c8.82,1,17,2.34,24.75,3.85l1.2,30.93.26,6.51,6.51.21,51.73,1.72,7.49.24-.26-7.49-.49-13.81c7.3,2.21,14.68,4.33,22.38,6.26l.62,18.4A13.27,13.27,0,0,1,592.77,863.85Z" transform="translate(8.81 -677.43)"/><path class="cls-33" d="M452.53,864l-30.32-.43-7.92-17-1.82-3.93-4.33-.11-55.38-1.5-4.88-.13-1.81,4.54-6.73,16.93-38.1-.54,20-44.27c12.13-1.89,24.66-3.9,38.12-5.71l-2.76,6.88-3.68,9.18,9.88.42,32.52,1.41,11.56.5-4.92-10.47-5.58-11.88q4.68-.36,9.54-.66,9.67-.59,18.57-.81Z" transform="translate(8.81 -677.43)"/><path class="cls-34" d="M280.23,823a.94.94,0,0,1-.09.12,8.85,8.85,0,0,1-7.18,3.46h-.42L167.06,823l-7.68-.26.46,7.67,1.75,29.51L117,859.27l-4-63.39a413.72,413.72,0,0,0,70.22,21.36C221.87,825.3,251.73,825.66,280.23,823Z" transform="translate(8.81 -677.43)"/><path class="cls-35" d="M1123,868.9l25.27.58,5.14-1.67-.42,4.48a6.41,6.41,0,0,1-6.45,5.07l-23.54-.68Z" transform="translate(8.81 -677.43)"/></g></svg>